<svg width="15" height="17" viewBox="0 0 15 17" fill="none" xmlns="http://www.w3.org/2000/svg">
<path d="M4.46488 2.07364C3.36203 1.5602 2.33397 1.29106 1.80468 1.14808C1.55905 1.08159 1.41772 1.04944 1.41772 1.04944C1.41772 1.04944 1.42698 1.06308 1.44424 1.09182C1.58857 1.33198 2.44328 2.4631 2.60737 5.39881C2.64214 6.016 2.59186 7.81085 2.64339 8.41416C2.7532 9.70141 3.15617 10.8014 3.83604 11.7688C4.99592 13.4195 6.47147 14.0001 7.5338 14.2011C8.27745 14.3416 8.81875 14.2961 8.9083 14.3007C9.0061 14.2089 10.0564 13.9741 10.1637 13.8674C10.5449 12.2433 11.8824 5.52668 4.46488 2.07364Z" fill="url(#paint0_linear_1_521)"/>
<g style="mix-blend-mode:multiply">
<path d="M4.51897 1.90067C3.40061 1.38 2.35809 1.10708 1.82136 0.962093C1.57227 0.894664 1.42896 0.862061 1.42896 0.862061C1.42896 0.862061 1.43834 0.875892 1.45584 0.905037C1.6022 1.14857 2.46894 2.29561 2.63533 5.27261C2.67059 5.89849 2.61961 7.71858 2.67186 8.33039C2.78322 9.63574 3.19185 10.7512 3.88128 11.7322C5.05748 13.4061 6.55379 13.9949 7.63106 14.1987C8.38517 14.3412 8.93408 14.295 9.02489 14.2997C9.12407 14.2066 10.1892 13.9685 10.298 13.8603C10.6845 12.2134 12.0408 5.40229 4.51897 1.90067Z" fill="url(#paint1_linear_1_521)" fill-opacity="0.4"/>
</g>
<path d="M14.3804 5.33122C13.8739 9.13086 11.4073 12.8365 8.09954 14.5059C7.82489 14.5059 6.54745 13.3258 6.04318 12.1304C5.00862 9.67815 6.20427 7.43125 9.35147 4.80463C10.6702 3.70395 12.1615 2.24255 12.9977 0.117188C13.8594 1.68015 14.3552 3.45673 14.3804 5.33122Z" fill="url(#paint2_linear_1_521)"/>
<path d="M14.3684 6.03782C14.3666 6.07606 14.3646 6.1143 14.3623 6.15279C14.3563 6.25509 14.3488 6.35714 14.3403 6.45871C13.8333 12.4578 8.56746 17.0088 2.38736 16.8744C2.24053 16.8712 2.10996 16.8668 2.00915 16.8612C1.43409 16.8286 0.875538 16.7479 0.34375 16.6357V15.0449C0.34375 15.0449 2.54844 15.2853 3.7591 15.2032C3.7601 15.2032 3.76135 15.2032 3.7626 15.203C5.3307 15.0768 6.81826 14.6467 8.15824 13.9701C11.4658 12.3007 13.8748 9.13088 14.3811 5.33124C14.3844 5.56555 14.3801 5.80083 14.3684 6.03782Z" fill="url(#paint3_linear_1_521)"/>
<defs>
<linearGradient id="paint0_linear_1_521" x1="6.81074" y1="11.0112" x2="3.89371" y2="4.53205" gradientUnits="userSpaceOnUse">
<stop stop-color="#F71F36"/>
<stop offset="1" stop-color="#F97664"/>
</linearGradient>
<linearGradient id="paint1_linear_1_521" x1="15.491" y1="12.4545" x2="1.31058" y2="-2.90248" gradientUnits="userSpaceOnUse">
<stop offset="0.128343" stop-color="#020202"/>
<stop offset="0.487565" stop-color="white" stop-opacity="0"/>
</linearGradient>
<linearGradient id="paint2_linear_1_521" x1="7.16356" y1="15.3688" x2="11.1305" y2="5.98298" gradientUnits="userSpaceOnUse">
<stop offset="0.0687133" stop-color="#263B40"/>
<stop offset="0.247644" stop-color="#225864"/>
<stop offset="1" stop-color="#2EA68C"/>
</linearGradient>
<linearGradient id="paint3_linear_1_521" x1="3.22628" y1="17.7058" x2="7.31091" y2="5.83543" gradientUnits="userSpaceOnUse">
<stop stop-color="#24666B"/>
<stop offset="1" stop-color="#2EA68C"/>
</linearGradient>
</defs>
</svg>
